<svg width="30" height="31" viewBox="0 0 30 31" fill="none" xmlns="http://www.w3.org/2000/svg">
<g clip-path="url(#clip0_2_181)">
<path fill-rule="evenodd" clip-rule="evenodd" d="M15 0.390625C6.7175 0.390625 0 7.10563 0 15.3906C0 23.6744 6.7175 30.3906 15 30.3906C23.2837 30.3906 30 23.6744 30 15.3906C30 7.10563 23.2837 0.390625 15 0.390625ZM19.06 23.3256L18.5962 21.7069L19.7162 22.7481L20.775 23.7281L22.6562 25.3906V9.69312C22.6562 8.69562 21.8513 7.89062 20.8625 7.89062H9.1375C8.14875 7.89062 7.34375 8.69562 7.34375 9.69312V21.5231C7.34375 22.5206 8.14875 23.3256 9.1375 23.3256H19.06V23.3256ZM17.485 19.3181L16.9075 18.6094C18.0538 18.2856 18.4913 17.5681 18.4913 17.5681C18.1325 17.8044 17.7912 17.9706 17.485 18.0844C17.0475 18.2681 16.6275 18.3906 16.2162 18.4606C15.3762 18.6181 14.6062 18.5744 13.95 18.4519C13.4512 18.3556 13.0225 18.2156 12.6637 18.0756C12.4625 17.9969 12.2437 17.9006 12.025 17.7781L11.99 17.7581L11.9813 17.7544L11.9463 17.7344L11.9113 17.7081L11.6663 17.5594C11.6663 17.5594 12.0862 18.2594 13.1975 18.5919L12.6112 19.3181C10.6775 19.2569 9.9425 17.9881 9.9425 17.9881C9.9425 15.1706 11.2025 12.8869 11.2025 12.8869C12.4625 11.9419 13.6612 11.9681 13.6612 11.9681L13.7487 12.0731C12.1737 12.5281 11.4475 13.2194 11.4475 13.2194L11.9638 12.9656C12.9 12.5544 13.6437 12.4406 13.95 12.4144L14.0988 12.3969C14.6325 12.3269 15.2362 12.3094 15.8662 12.3794C16.6975 12.4756 17.59 12.7206 18.5 13.2194C18.5 13.2194 17.8088 12.5631 16.3213 12.1081L16.4437 11.9681C16.4437 11.9681 17.6425 11.9419 18.9025 12.8869C18.9025 12.8869 20.1625 15.1706 20.1625 17.9881C20.1625 17.9881 19.4462 19.2094 17.485 19.3181V19.3181ZM16.61 15.2319C16.1113 15.2319 15.7175 15.6694 15.7175 16.2031C15.7175 16.7369 16.12 17.1744 16.61 17.1744C17.1088 17.1744 17.5025 16.7369 17.5025 16.2031C17.5025 15.6694 17.1088 15.2319 16.61 15.2319ZM13.4162 15.2319C12.9175 15.2319 12.5238 15.6694 12.5238 16.2031C12.5238 16.7369 12.9262 17.1744 13.4162 17.1744C13.915 17.1744 14.3087 16.7369 14.3087 16.2031C14.3175 15.6694 13.915 15.2319 13.4162 15.2319Z" fill="#C0C0C0"/>
</g>
<defs>
<clipPath id="clip0_2_181">
<rect width="30" height="30" fill="white" transform="translate(0 0.390625)"/>
</clipPath>
</defs>
</svg>
