<svg width="30" height="31" viewBox="0 0 30 31" fill="none" xmlns="http://www.w3.org/2000/svg">
<g clip-path="url(#clip0_23_389)">
<path d="M18.5363 8.67438C17.6138 8.63188 17.3362 8.62438 15 8.62438C12.6638 8.62438 12.3875 8.63313 11.465 8.67438C9.09125 8.78313 7.98625 9.90687 7.8775 12.2619C7.83625 13.1844 7.82625 13.4606 7.82625 15.7969C7.82625 18.1331 7.83625 18.4094 7.8775 19.3331C7.98625 21.6819 9.08625 22.8119 11.465 22.9206C12.3862 22.9619 12.6638 22.9719 15 22.9719C17.3375 22.9719 17.6138 22.9631 18.5363 22.9206C20.91 22.8131 22.0137 21.6856 22.1237 19.3331C22.165 18.4106 22.1738 18.1331 22.1738 15.7969C22.1738 13.4606 22.165 13.1844 22.1237 12.2619C22.0137 9.90812 20.9075 8.78313 18.5363 8.67438V8.67438ZM15 20.2906C12.5187 20.2906 10.5062 18.2794 10.5062 15.7969C10.5062 13.3156 12.5187 11.3044 15 11.3044C17.4813 11.3044 19.4938 13.3156 19.4938 15.7969C19.4938 18.2781 17.4813 20.2906 15 20.2906ZM19.6713 12.1769C19.0913 12.1769 18.6213 11.7069 18.6213 11.1269C18.6213 10.5469 19.0913 10.0769 19.6713 10.0769C20.2513 10.0769 20.7212 10.5469 20.7212 11.1269C20.7212 11.7056 20.2513 12.1769 19.6713 12.1769V12.1769ZM17.9163 15.7969C17.9163 17.4081 16.61 18.7131 15 18.7131C13.39 18.7131 12.0837 17.4081 12.0837 15.7969C12.0837 14.1856 13.39 12.8806 15 12.8806C16.61 12.8806 17.9163 14.1856 17.9163 15.7969ZM15 0.796875C6.71625 0.796875 0 7.51313 0 15.7969C0 24.0806 6.71625 30.7969 15 30.7969C23.2837 30.7969 30 24.0806 30 15.7969C30 7.51313 23.2837 0.796875 15 0.796875ZM23.6975 19.4044C23.5538 22.5856 21.7825 24.3481 18.6088 24.4944C17.675 24.5369 17.3763 24.5469 15 24.5469C12.6237 24.5469 12.3263 24.5369 11.3925 24.4944C8.2125 24.3481 6.44875 22.5831 6.3025 19.4044C6.26 18.4719 6.25 18.1731 6.25 15.7969C6.25 13.4206 6.26 13.1231 6.3025 12.1894C6.44875 9.00938 8.21375 7.24563 11.3925 7.10063C12.3263 7.05688 12.6237 7.04688 15 7.04688C17.3763 7.04688 17.675 7.05688 18.6088 7.10063C21.79 7.24688 23.555 9.01563 23.6975 12.1894C23.74 13.1231 23.75 13.4206 23.75 15.7969C23.75 18.1731 23.74 18.4719 23.6975 19.4044Z" fill="#C0C0C0"/>
</g>
<defs>
<clipPath id="clip0_23_389">
<rect width="30" height="30" fill="white" transform="translate(0 0.796875)"/>
</clipPath>
</defs>
</svg>
