<svg width="30" height="31" viewBox="0 0 30 31" fill="none" xmlns="http://www.w3.org/2000/svg">
<g clip-path="url(#clip0_2_183)">
<path d="M15 0.203125C6.717 0.203125 0 6.92012 0 15.2031C0 23.4861 6.717 30.2031 15 30.2031C23.283 30.2031 30 23.4861 30 15.2031C30 6.92012 23.286 0.203125 15 0.203125ZM7.401 15.7071L7.464 15.6051L11.367 9.50013C11.424 9.41313 11.559 9.42213 11.601 9.51813C12.252 10.9791 12.816 12.7971 12.552 13.9281C12.441 14.3931 12.132 15.0231 11.784 15.6051C11.739 15.6891 11.691 15.7731 11.637 15.8541C11.613 15.8901 11.571 15.9111 11.526 15.9111H7.515C7.407 15.9111 7.344 15.7941 7.401 15.7071ZM24.792 17.8071C24.792 17.8641 24.759 17.9121 24.711 17.9331C24.408 18.0621 23.373 18.5391 22.944 19.1361C21.846 20.6631 21.009 22.8471 19.134 22.8471H11.316C8.544 22.8471 6.3 20.5941 6.3 17.8131V17.7231C6.3 17.6511 6.36 17.5911 6.435 17.5911H10.791C10.878 17.5911 10.941 17.6691 10.935 17.7561C10.902 18.0381 10.956 18.3291 11.091 18.5931C11.349 19.1181 11.886 19.4451 12.465 19.4451H14.622V17.7621H12.489C12.381 17.7621 12.315 17.6361 12.378 17.5461C12.402 17.5101 12.426 17.4741 12.456 17.4321C12.657 17.1441 12.945 16.7001 13.233 16.1931C13.428 15.8511 13.617 15.4851 13.77 15.1191C13.8 15.0531 13.824 14.9841 13.851 14.9181C13.893 14.8011 13.935 14.6901 13.965 14.5821C13.995 14.4891 14.022 14.3931 14.046 14.3031C14.118 13.9911 14.148 13.6611 14.148 13.3191C14.148 13.1841 14.142 13.0431 14.13 12.9111C14.124 12.7641 14.106 12.6171 14.088 12.4701C14.076 12.3411 14.052 12.2121 14.028 12.0801C13.995 11.8851 13.953 11.6901 13.905 11.4951L13.887 11.4201C13.851 11.2851 13.818 11.1591 13.776 11.0241C13.653 10.6041 13.515 10.1931 13.365 9.80913C13.311 9.65613 13.251 9.50913 13.188 9.36513C13.098 9.14313 13.005 8.94213 12.921 8.75313C12.876 8.66613 12.84 8.58813 12.804 8.50713C12.762 8.41713 12.72 8.32713 12.675 8.24013C12.645 8.17413 12.609 8.11113 12.585 8.05113L12.321 7.56513C12.285 7.49913 12.345 7.41813 12.417 7.43913L14.067 7.88613H14.073C14.076 7.88613 14.076 7.88613 14.079 7.88613L14.295 7.94913L14.535 8.01513L14.622 8.03913V7.06113C14.622 6.58712 15 6.20313 15.471 6.20313C15.705 6.20313 15.918 6.29913 16.068 6.45513C16.221 6.61113 16.317 6.82412 16.317 7.06113V8.51612L16.494 8.56413C16.506 8.57013 16.521 8.57613 16.533 8.58513C16.575 8.61513 16.638 8.66313 16.716 8.72313C16.779 8.77113 16.845 8.83113 16.923 8.89413C17.082 9.02313 17.274 9.18813 17.481 9.37713C17.535 9.42513 17.589 9.47313 17.64 9.52413C17.907 9.77313 18.207 10.0641 18.495 10.3881C18.576 10.4811 18.654 10.5711 18.735 10.6701C18.813 10.7691 18.9 10.8651 18.972 10.9611C19.071 11.0901 19.173 11.2251 19.266 11.3661C19.308 11.4321 19.359 11.5011 19.398 11.5671C19.518 11.7441 19.62 11.9271 19.719 12.1101C19.761 12.1941 19.803 12.2871 19.839 12.3771C19.95 12.6231 20.037 12.8721 20.091 13.1241C20.109 13.1781 20.121 13.2351 20.127 13.2891V13.3011C20.145 13.3731 20.151 13.4511 20.157 13.5321C20.181 13.7871 20.169 14.0451 20.115 14.3031C20.091 14.4111 20.061 14.5131 20.025 14.6241C19.986 14.7291 19.95 14.8371 19.902 14.9421C19.809 15.1551 19.701 15.3711 19.572 15.5691C19.53 15.6441 19.479 15.7221 19.431 15.7971C19.377 15.8751 19.32 15.9501 19.272 16.0221C19.203 16.1151 19.131 16.2111 19.056 16.2981C18.99 16.3881 18.924 16.4781 18.849 16.5591C18.747 16.6821 18.648 16.7961 18.543 16.9071C18.483 16.9791 18.417 17.0541 18.348 17.1201C18.282 17.1951 18.213 17.2611 18.153 17.3211C18.048 17.4261 17.964 17.5041 17.892 17.5731L17.721 17.7261C17.697 17.7501 17.664 17.7621 17.631 17.7621H16.317V19.4451H17.97C18.339 19.4451 18.69 19.3161 18.975 19.0731C19.071 18.9891 19.494 18.6231 19.995 18.0711C20.013 18.0501 20.034 18.0381 20.058 18.0321L24.621 16.7121C24.708 16.6881 24.792 16.7511 24.792 16.8411V17.8071Z" fill="#C0C0C0"/>
</g>
<defs>
<clipPath id="clip0_2_183">
<rect width="30" height="30" fill="white" transform="translate(0 0.203125)"/>
</clipPath>
</defs>
</svg>
