<svg width="30" height="31" viewBox="0 0 30 31" fill="none" xmlns="http://www.w3.org/2000/svg">
<g clip-path="url(#clip0_2_179)">
<path d="M15 0.203125C6.71625 0.203125 0 6.91938 0 15.2031C0 23.4869 6.71625 30.2031 15 30.2031C23.2837 30.2031 30 23.4869 30 15.2031C30 6.91938 23.2837 0.203125 15 0.203125ZM22.5825 12.2594C22.8112 17.3094 19.045 22.9394 12.3775 22.9394C10.35 22.9394 8.46375 22.3444 6.875 21.3256C8.78 21.5506 10.6812 21.0206 12.19 19.8394C10.62 19.8106 9.29375 18.7719 8.835 17.3456C9.39875 17.4531 9.95375 17.4219 10.4575 17.2844C8.73125 16.9369 7.53875 15.3819 7.5775 13.7181C8.0625 13.9869 8.615 14.1481 9.20375 14.1669C7.605 13.0981 7.1525 10.9869 8.0925 9.37312C9.8625 11.5456 12.5087 12.9744 15.4925 13.1244C14.9688 10.8794 16.6725 8.71562 18.9912 8.71562C20.0225 8.71562 20.9562 9.15187 21.6112 9.84938C22.4287 9.68938 23.1988 9.38937 23.8913 8.97812C23.6225 9.81687 23.0538 10.5194 22.3125 10.9644C23.0388 10.8769 23.7313 10.6844 24.3738 10.3981C23.8938 11.1206 23.2863 11.7531 22.5825 12.2594V12.2594Z" fill="#C0C0C0"/>
</g>
<defs>
<clipPath id="clip0_2_179">
<rect width="30" height="30" fill="white" transform="translate(0 0.203125)"/>
</clipPath>
</defs>
</svg>
